<svg width="1728" height="844" viewBox="0 0 1728 844" fill="none" xmlns="http://www.w3.org/2000/svg">
<rect width="1728" height="844" fill="url(#paint0_radial_1_2)"/>
<path d="M917.753 188.912C928.409 188.912 937.721 191.024 945.689 195.248C953.657 199.472 959.801 205.424 964.121 213.104C968.537 220.688 970.745 229.472 970.745 239.456C970.745 249.344 968.537 258.128 964.121 265.808C959.801 273.488 953.609 279.44 945.545 283.664C937.577 287.888 928.313 290 917.753 290H879.881V188.912H917.753ZM916.169 268.688C925.481 268.688 932.729 266.144 937.913 261.056C943.097 255.968 945.689 248.768 945.689 239.456C945.689 230.144 943.097 222.896 937.913 217.712C932.729 212.528 925.481 209.936 916.169 209.936H904.505V268.688H916.169ZM1009.13 188.912V290H984.506V188.912H1009.13ZM1089.9 272.144H1052.17L1046.13 290H1020.35L1056.93 188.912H1085.44L1122.01 290H1095.95L1089.9 272.144ZM1083.57 253.136L1071.04 216.128L1058.65 253.136H1083.57ZM1200.25 220.88C1198.43 217.52 1195.79 214.976 1192.33 213.248C1188.97 211.424 1184.99 210.512 1180.38 210.512C1172.41 210.512 1166.03 213.152 1161.23 218.432C1156.43 223.616 1154.03 230.576 1154.03 239.312C1154.03 248.624 1156.52 255.92 1161.51 261.2C1166.6 266.384 1173.56 268.976 1182.39 268.976C1188.44 268.976 1193.53 267.44 1197.66 264.368C1201.88 261.296 1204.95 256.88 1206.87 251.12H1175.63V232.976H1229.19V255.872C1227.37 262.016 1224.25 267.728 1219.83 273.008C1215.51 278.288 1209.99 282.56 1203.27 285.824C1196.55 289.088 1188.97 290.72 1180.52 290.72C1170.54 290.72 1161.61 288.56 1153.74 284.24C1145.96 279.824 1139.87 273.728 1135.45 265.952C1131.13 258.176 1128.97 249.296 1128.97 239.312C1128.97 229.328 1131.13 220.448 1135.45 212.672C1139.87 204.8 1145.96 198.704 1153.74 194.384C1161.51 189.968 1170.39 187.76 1180.38 187.76C1192.47 187.76 1202.65 190.688 1210.91 196.544C1219.26 202.4 1224.78 210.512 1227.47 220.88H1200.25ZM1333.27 290H1308.64L1267.46 227.648V290H1242.83V188.912H1267.46L1308.64 251.552V188.912H1333.27V290ZM1398.92 291.008C1389.42 291.008 1380.68 288.8 1372.72 284.384C1364.84 279.968 1358.56 273.824 1353.85 265.952C1349.24 257.984 1346.94 249.056 1346.94 239.168C1346.94 229.28 1349.24 220.4 1353.85 212.528C1358.56 204.656 1364.84 198.512 1372.72 194.096C1380.68 189.68 1389.42 187.472 1398.92 187.472C1408.43 187.472 1417.12 189.68 1424.99 194.096C1432.96 198.512 1439.2 204.656 1443.71 212.528C1448.32 220.4 1450.62 229.28 1450.62 239.168C1450.62 249.056 1448.32 257.984 1443.71 265.952C1439.1 273.824 1432.86 279.968 1424.99 284.384C1417.12 288.8 1408.43 291.008 1398.92 291.008ZM1398.92 268.544C1406.99 268.544 1413.42 265.856 1418.22 260.48C1423.12 255.104 1425.56 248 1425.56 239.168C1425.56 230.24 1423.12 223.136 1418.22 217.856C1413.42 212.48 1406.99 209.792 1398.92 209.792C1390.76 209.792 1384.24 212.432 1379.34 217.712C1374.54 222.992 1372.14 230.144 1372.14 239.168C1372.14 248.096 1374.54 255.248 1379.34 260.624C1384.24 265.904 1390.76 268.544 1398.92 268.544ZM1500.89 291.008C1493.5 291.008 1486.88 289.808 1481.02 287.408C1475.17 285.008 1470.46 281.456 1466.91 276.752C1463.45 272.048 1461.63 266.384 1461.44 259.76H1487.65C1488.03 263.504 1489.33 266.384 1491.53 268.4C1493.74 270.32 1496.62 271.28 1500.17 271.28C1503.82 271.28 1506.7 270.464 1508.81 268.832C1510.93 267.104 1511.98 264.752 1511.98 261.776C1511.98 259.28 1511.12 257.216 1509.39 255.584C1507.76 253.952 1505.69 252.608 1503.2 251.552C1500.8 250.496 1497.34 249.296 1492.83 247.952C1486.3 245.936 1480.97 243.92 1476.85 241.904C1472.72 239.888 1469.17 236.912 1466.19 232.976C1463.21 229.04 1461.73 223.904 1461.73 217.568C1461.73 208.16 1465.13 200.816 1471.95 195.536C1478.77 190.16 1487.65 187.472 1498.59 187.472C1509.73 187.472 1518.7 190.16 1525.52 195.536C1532.33 200.816 1535.98 208.208 1536.46 217.712H1509.82C1509.63 214.448 1508.43 211.904 1506.22 210.08C1504.01 208.16 1501.18 207.2 1497.73 207.2C1494.75 207.2 1492.35 208.016 1490.53 209.648C1488.7 211.184 1487.79 213.44 1487.79 216.416C1487.79 219.68 1489.33 222.224 1492.4 224.048C1495.47 225.872 1500.27 227.84 1506.8 229.952C1513.33 232.16 1518.61 234.272 1522.64 236.288C1526.77 238.304 1530.32 241.232 1533.29 245.072C1536.27 248.912 1537.76 253.856 1537.76 259.904C1537.76 265.664 1536.27 270.896 1533.29 275.6C1530.41 280.304 1526.19 284.048 1520.62 286.832C1515.05 289.616 1508.48 291.008 1500.89 291.008ZM1577.54 208.64V229.088H1610.51V248.096H1577.54V270.272H1614.83V290H1552.91V188.912H1614.83V208.64H1577.54ZM971.866 409.7L935.416 480.2V515H909.766V480.2L873.316 409.7H902.416L922.816 453.8L943.066 409.7H971.866ZM1032 516.05C1022.1 516.05 1013 513.75 1004.7 509.15C996.5 504.55 989.95 498.15 985.05 489.95C980.25 481.65 977.85 472.35 977.85 462.05C977.85 451.75 980.25 442.5 985.05 434.3C989.95 426.1 996.5 419.7 1004.7 415.1C1013 410.5 1022.1 408.2 1032 408.2C1041.9 408.2 1050.95 410.5 1059.15 415.1C1067.45 419.7 1073.95 426.1 1078.65 434.3C1083.45 442.5 1085.85 451.75 1085.85 462.05C1085.85 472.35 1083.45 481.65 1078.65 489.95C1073.85 498.15 1067.35 504.55 1059.15 509.15C1050.95 513.75 1041.9 516.05 1032 516.05ZM1032 492.65C1040.4 492.65 1047.1 489.85 1052.1 484.25C1057.2 478.65 1059.75 471.25 1059.75 462.05C1059.75 452.75 1057.2 445.35 1052.1 439.85C1047.1 434.25 1040.4 431.45 1032 431.45C1023.5 431.45 1016.7 434.2 1011.6 439.7C1006.6 445.2 1004.1 452.65 1004.1 462.05C1004.1 471.35 1006.6 478.8 1011.6 484.4C1016.7 489.9 1023.5 492.65 1032 492.65ZM1125.32 409.7V472.7C1125.32 479 1126.87 483.85 1129.97 487.25C1133.07 490.65 1137.62 492.35 1143.62 492.35C1149.62 492.35 1154.22 490.65 1157.42 487.25C1160.62 483.85 1162.22 479 1162.22 472.7V409.7H1187.87V472.55C1187.87 481.95 1185.87 489.9 1181.87 496.4C1177.87 502.9 1172.47 507.8 1165.67 511.1C1158.97 514.4 1151.47 516.05 1143.17 516.05C1134.87 516.05 1127.42 514.45 1120.82 511.25C1114.32 507.95 1109.17 503.05 1105.37 496.55C1101.57 489.95 1099.67 481.95 1099.67 472.55V409.7H1125.32ZM1259.58 515L1237.68 475.25H1231.53V515H1205.88V409.7H1248.93C1257.23 409.7 1264.28 411.15 1270.08 414.05C1275.98 416.95 1280.38 420.95 1283.28 426.05C1286.18 431.05 1287.63 436.65 1287.63 442.85C1287.63 449.85 1285.63 456.1 1281.63 461.6C1277.73 467.1 1271.93 471 1264.23 473.3L1288.53 515H1259.58ZM1231.53 457.1H1247.43C1252.13 457.1 1255.63 455.95 1257.93 453.65C1260.33 451.35 1261.53 448.1 1261.53 443.9C1261.53 439.9 1260.33 436.75 1257.93 434.45C1255.63 432.15 1252.13 431 1247.43 431H1231.53V457.1ZM1341.83 516.05C1334.13 516.05 1327.23 514.8 1321.13 512.3C1315.03 509.8 1310.13 506.1 1306.43 501.2C1302.83 496.3 1300.93 490.4 1300.73 483.5H1328.03C1328.43 487.4 1329.78 490.4 1332.08 492.5C1334.38 494.5 1337.38 495.5 1341.08 495.5C1344.88 495.5 1347.88 494.65 1350.08 492.95C1352.28 491.15 1353.38 488.7 1353.38 485.6C1353.38 483 1352.48 480.85 1350.68 479.15C1348.98 477.45 1346.83 476.05 1344.23 474.95C1341.73 473.85 1338.13 472.6 1333.43 471.2C1326.63 469.1 1321.08 467 1316.78 464.9C1312.48 462.8 1308.78 459.7 1305.68 455.6C1302.58 451.5 1301.03 446.15 1301.03 439.55C1301.03 429.75 1304.58 422.1 1311.68 416.6C1318.78 411 1328.03 408.2 1339.43 408.2C1351.03 408.2 1360.38 411 1367.48 416.6C1374.58 422.1 1378.38 429.8 1378.88 439.7H1351.13C1350.93 436.3 1349.68 433.65 1347.38 431.75C1345.08 429.75 1342.13 428.75 1338.53 428.75C1335.43 428.75 1332.93 429.6 1331.03 431.3C1329.13 432.9 1328.18 435.25 1328.18 438.35C1328.18 441.75 1329.78 444.4 1332.98 446.3C1336.18 448.2 1341.18 450.25 1347.98 452.45C1354.78 454.75 1360.28 456.95 1364.48 459.05C1368.78 461.15 1372.48 464.2 1375.58 468.2C1378.68 472.2 1380.23 477.35 1380.23 483.65C1380.23 489.65 1378.68 495.1 1375.58 500C1372.58 504.9 1368.18 508.8 1362.38 511.7C1356.58 514.6 1349.73 516.05 1341.83 516.05ZM1421.67 430.25V451.55H1456.02V471.35H1421.67V494.45H1460.52V515H1396.02V409.7H1460.52V430.25H1421.67ZM1502.82 495.2H1536.42V515H1477.17V409.7H1502.82V495.2ZM1617.21 409.7V430.25H1574.31V452.45H1606.41V472.4H1574.31V515H1548.66V409.7H1617.21Z" fill="black"/>
<path d="M1417.42 731H1398.61L1373.55 693.176V731H1354.74V663.32H1373.55L1398.61 701.624V663.32H1417.42V731ZM1460.59 731.672C1454.25 731.672 1448.43 730.2 1443.12 727.256C1437.81 724.248 1433.58 720.12 1430.45 714.872C1427.37 709.56 1425.84 703.576 1425.84 696.92C1425.84 690.264 1427.37 684.312 1430.45 679.064C1433.58 673.752 1437.81 669.624 1443.12 666.68C1448.43 663.736 1454.25 662.264 1460.59 662.264C1466.99 662.264 1472.81 663.736 1478.06 666.68C1483.37 669.624 1487.57 673.752 1490.64 679.064C1493.71 684.312 1495.25 690.264 1495.25 696.92C1495.25 703.576 1493.71 709.56 1490.64 714.872C1487.57 720.12 1483.37 724.248 1478.06 727.256C1472.75 730.2 1466.93 731.672 1460.59 731.672ZM1460.59 714.2C1465.39 714.2 1469.17 712.632 1471.92 709.496C1474.73 706.36 1476.14 702.168 1476.14 696.92C1476.14 691.544 1474.73 687.32 1471.92 684.248C1469.17 681.112 1465.39 679.544 1460.59 679.544C1455.73 679.544 1451.92 681.112 1449.17 684.248C1446.41 687.32 1445.04 691.544 1445.04 696.92C1445.04 702.232 1446.41 706.456 1449.17 709.592C1451.92 712.664 1455.73 714.2 1460.59 714.2ZM1599.03 663.32L1582.42 731H1559.29L1549.98 689.528L1540.47 731H1517.34L1500.92 663.32H1521.27L1529.14 709.592L1539.8 663.32H1560.44L1570.81 709.208L1578.68 663.32H1599.03ZM1616.14 731.768C1612.81 731.768 1610.12 730.872 1608.07 729.08C1606.09 727.224 1605.1 724.888 1605.1 722.072C1605.1 719.256 1606.09 716.92 1608.07 715.064C1610.12 713.208 1612.81 712.28 1616.14 712.28C1619.4 712.28 1622.02 713.208 1624.01 715.064C1626.06 716.92 1627.08 719.256 1627.08 722.072C1627.08 724.824 1626.06 727.128 1624.01 728.984C1622.02 730.84 1619.4 731.768 1616.14 731.768Z" fill="white" fill-opacity="0.71"/>
<defs>
<radialGradient id="paint0_radial_1_2" cx="0" cy="0" r="1" gradientUnits="userSpaceOnUse" gradientTransform="translate(864 422) rotate(90) scale(422 864)">
<stop stop-color="#9CCF97"/>
<stop offset="1" stop-color="#69B839"/>
</radialGradient>
</defs>
</svg>
