<svg width="1920" height="1080" viewBox="0 0 1920 1080" fill="none" xmlns="http://www.w3.org/2000/svg">
<rect width="1920" height="1080" fill="#E5E5E5"/>
<rect width="1920" height="1080" fill="url(#paint0_radial_0_1)"/>
<path d="M1107.75 263.912C1118.41 263.912 1127.72 266.024 1135.69 270.248C1143.66 274.472 1149.8 280.424 1154.12 288.104C1158.54 295.688 1160.75 304.472 1160.75 314.456C1160.75 324.344 1158.54 333.128 1154.12 340.808C1149.8 348.488 1143.61 354.44 1135.55 358.664C1127.58 362.888 1118.31 365 1107.75 365H1069.88V263.912H1107.75ZM1106.17 343.688C1115.48 343.688 1122.73 341.144 1127.91 336.056C1133.1 330.968 1135.69 323.768 1135.69 314.456C1135.69 305.144 1133.1 297.896 1127.91 292.712C1122.73 287.528 1115.48 284.936 1106.17 284.936H1094.51V343.688H1106.17ZM1199.13 263.912V365H1174.51V263.912H1199.13ZM1279.9 347.144H1242.17L1236.13 365H1210.35L1246.93 263.912H1275.44L1312.01 365H1285.95L1279.9 347.144ZM1273.57 328.136L1261.04 291.128L1248.65 328.136H1273.57ZM1390.25 295.88C1388.43 292.52 1385.79 289.976 1382.33 288.248C1378.97 286.424 1374.99 285.512 1370.38 285.512C1362.41 285.512 1356.03 288.152 1351.23 293.432C1346.43 298.616 1344.03 305.576 1344.03 314.312C1344.03 323.624 1346.52 330.92 1351.51 336.2C1356.6 341.384 1363.56 343.976 1372.39 343.976C1378.44 343.976 1383.53 342.44 1387.66 339.368C1391.88 336.296 1394.95 331.88 1396.87 326.12H1365.63V307.976H1419.19V330.872C1417.37 337.016 1414.25 342.728 1409.83 348.008C1405.51 353.288 1399.99 357.56 1393.27 360.824C1386.55 364.088 1378.97 365.72 1370.52 365.72C1360.54 365.72 1351.61 363.56 1343.74 359.24C1335.96 354.824 1329.87 348.728 1325.45 340.952C1321.13 333.176 1318.97 324.296 1318.97 314.312C1318.97 304.328 1321.13 295.448 1325.45 287.672C1329.87 279.8 1335.96 273.704 1343.74 269.384C1351.51 264.968 1360.39 262.76 1370.38 262.76C1382.47 262.76 1392.65 265.688 1400.91 271.544C1409.26 277.4 1414.78 285.512 1417.47 295.88H1390.25ZM1523.27 365H1498.64L1457.46 302.648V365H1432.83V263.912H1457.46L1498.64 326.552V263.912H1523.27V365ZM1588.92 366.008C1579.42 366.008 1570.68 363.8 1562.72 359.384C1554.84 354.968 1548.56 348.824 1543.85 340.952C1539.24 332.984 1536.94 324.056 1536.94 314.168C1536.94 304.28 1539.24 295.4 1543.85 287.528C1548.56 279.656 1554.84 273.512 1562.72 269.096C1570.68 264.68 1579.42 262.472 1588.92 262.472C1598.43 262.472 1607.12 264.68 1614.99 269.096C1622.96 273.512 1629.2 279.656 1633.71 287.528C1638.32 295.4 1640.62 304.28 1640.62 314.168C1640.62 324.056 1638.32 332.984 1633.71 340.952C1629.1 348.824 1622.86 354.968 1614.99 359.384C1607.12 363.8 1598.43 366.008 1588.92 366.008ZM1588.92 343.544C1596.99 343.544 1603.42 340.856 1608.22 335.48C1613.12 330.104 1615.56 323 1615.56 314.168C1615.56 305.24 1613.12 298.136 1608.22 292.856C1603.42 287.48 1596.99 284.792 1588.92 284.792C1580.76 284.792 1574.24 287.432 1569.34 292.712C1564.54 297.992 1562.14 305.144 1562.14 314.168C1562.14 323.096 1564.54 330.248 1569.34 335.624C1574.24 340.904 1580.76 343.544 1588.92 343.544ZM1690.89 366.008C1683.5 366.008 1676.88 364.808 1671.02 362.408C1665.17 360.008 1660.46 356.456 1656.91 351.752C1653.45 347.048 1651.63 341.384 1651.44 334.76H1677.65C1678.03 338.504 1679.33 341.384 1681.53 343.4C1683.74 345.32 1686.62 346.28 1690.17 346.28C1693.82 346.28 1696.7 345.464 1698.81 343.832C1700.93 342.104 1701.98 339.752 1701.98 336.776C1701.98 334.28 1701.12 332.216 1699.39 330.584C1697.76 328.952 1695.69 327.608 1693.2 326.552C1690.8 325.496 1687.34 324.296 1682.83 322.952C1676.3 320.936 1670.97 318.92 1666.85 316.904C1662.72 314.888 1659.17 311.912 1656.19 307.976C1653.21 304.04 1651.73 298.904 1651.73 292.568C1651.73 283.16 1655.13 275.816 1661.95 270.536C1668.77 265.16 1677.65 262.472 1688.59 262.472C1699.73 262.472 1708.7 265.16 1715.52 270.536C1722.33 275.816 1725.98 283.208 1726.46 292.712H1699.82C1699.63 289.448 1698.43 286.904 1696.22 285.08C1694.01 283.16 1691.18 282.2 1687.73 282.2C1684.75 282.2 1682.35 283.016 1680.53 284.648C1678.7 286.184 1677.79 288.44 1677.79 291.416C1677.79 294.68 1679.33 297.224 1682.4 299.048C1685.47 300.872 1690.27 302.84 1696.8 304.952C1703.33 307.16 1708.61 309.272 1712.64 311.288C1716.77 313.304 1720.32 316.232 1723.29 320.072C1726.27 323.912 1727.76 328.856 1727.76 334.904C1727.76 340.664 1726.27 345.896 1723.29 350.6C1720.41 355.304 1716.19 359.048 1710.62 361.832C1705.05 364.616 1698.48 366.008 1690.89 366.008ZM1767.54 283.64V304.088H1800.51V323.096H1767.54V345.272H1804.83V365H1742.91V263.912H1804.83V283.64H1767.54ZM1161.87 484.7L1125.42 555.2V590H1099.77V555.2L1063.32 484.7H1092.42L1112.82 528.8L1133.07 484.7H1161.87ZM1222 591.05C1212.1 591.05 1203 588.75 1194.7 584.15C1186.5 579.55 1179.95 573.15 1175.05 564.95C1170.25 556.65 1167.85 547.35 1167.85 537.05C1167.85 526.75 1170.25 517.5 1175.05 509.3C1179.95 501.1 1186.5 494.7 1194.7 490.1C1203 485.5 1212.1 483.2 1222 483.2C1231.9 483.2 1240.95 485.5 1249.15 490.1C1257.45 494.7 1263.95 501.1 1268.65 509.3C1273.45 517.5 1275.85 526.75 1275.85 537.05C1275.85 547.35 1273.45 556.65 1268.65 564.95C1263.85 573.15 1257.35 579.55 1249.15 584.15C1240.95 588.75 1231.9 591.05 1222 591.05ZM1222 567.65C1230.4 567.65 1237.1 564.85 1242.1 559.25C1247.2 553.65 1249.75 546.25 1249.75 537.05C1249.75 527.75 1247.2 520.35 1242.1 514.85C1237.1 509.25 1230.4 506.45 1222 506.45C1213.5 506.45 1206.7 509.2 1201.6 514.7C1196.6 520.2 1194.1 527.65 1194.1 537.05C1194.1 546.35 1196.6 553.8 1201.6 559.4C1206.7 564.9 1213.5 567.65 1222 567.65ZM1315.32 484.7V547.7C1315.32 554 1316.87 558.85 1319.97 562.25C1323.07 565.65 1327.62 567.35 1333.62 567.35C1339.62 567.35 1344.22 565.65 1347.42 562.25C1350.62 558.85 1352.22 554 1352.22 547.7V484.7H1377.87V547.55C1377.87 556.95 1375.87 564.9 1371.87 571.4C1367.87 577.9 1362.47 582.8 1355.67 586.1C1348.97 589.4 1341.47 591.05 1333.17 591.05C1324.87 591.05 1317.42 589.45 1310.82 586.25C1304.32 582.95 1299.17 578.05 1295.37 571.55C1291.57 564.95 1289.67 556.95 1289.67 547.55V484.7H1315.32ZM1449.58 590L1427.68 550.25H1421.53V590H1395.88V484.7H1438.93C1447.23 484.7 1454.28 486.15 1460.08 489.05C1465.98 491.95 1470.38 495.95 1473.28 501.05C1476.18 506.05 1477.63 511.65 1477.63 517.85C1477.63 524.85 1475.63 531.1 1471.63 536.6C1467.73 542.1 1461.93 546 1454.23 548.3L1478.53 590H1449.58ZM1421.53 532.1H1437.43C1442.13 532.1 1445.63 530.95 1447.93 528.65C1450.33 526.35 1451.53 523.1 1451.53 518.9C1451.53 514.9 1450.33 511.75 1447.93 509.45C1445.63 507.15 1442.13 506 1437.43 506H1421.53V532.1ZM1531.83 591.05C1524.13 591.05 1517.23 589.8 1511.13 587.3C1505.03 584.8 1500.13 581.1 1496.43 576.2C1492.83 571.3 1490.93 565.4 1490.73 558.5H1518.03C1518.43 562.4 1519.78 565.4 1522.08 567.5C1524.38 569.5 1527.38 570.5 1531.08 570.5C1534.88 570.5 1537.88 569.65 1540.08 567.95C1542.28 566.15 1543.38 563.7 1543.38 560.6C1543.38 558 1542.48 555.85 1540.68 554.15C1538.98 552.45 1536.83 551.05 1534.23 549.95C1531.73 548.85 1528.13 547.6 1523.43 546.2C1516.63 544.1 1511.08 542 1506.78 539.9C1502.48 537.8 1498.78 534.7 1495.68 530.6C1492.58 526.5 1491.03 521.15 1491.03 514.55C1491.03 504.75 1494.58 497.1 1501.68 491.6C1508.78 486 1518.03 483.2 1529.43 483.2C1541.03 483.2 1550.38 486 1557.48 491.6C1564.58 497.1 1568.38 504.8 1568.88 514.7H1541.13C1540.93 511.3 1539.68 508.65 1537.38 506.75C1535.08 504.75 1532.13 503.75 1528.53 503.75C1525.43 503.75 1522.93 504.6 1521.03 506.3C1519.13 507.9 1518.18 510.25 1518.18 513.35C1518.18 516.75 1519.78 519.4 1522.98 521.3C1526.18 523.2 1531.18 525.25 1537.98 527.45C1544.78 529.75 1550.28 531.95 1554.48 534.05C1558.78 536.15 1562.48 539.2 1565.58 543.2C1568.68 547.2 1570.23 552.35 1570.23 558.65C1570.23 564.65 1568.68 570.1 1565.58 575C1562.58 579.9 1558.18 583.8 1552.38 586.7C1546.58 589.6 1539.73 591.05 1531.83 591.05ZM1611.67 505.25V526.55H1646.02V546.35H1611.67V569.45H1650.52V590H1586.02V484.7H1650.52V505.25H1611.67ZM1692.82 570.2H1726.42V590H1667.17V484.7H1692.82V570.2ZM1807.21 484.7V505.25H1764.31V527.45H1796.41V547.4H1764.31V590H1738.66V484.7H1807.21Z" fill="black"/>
<path d="M1607.42 806H1588.61L1563.55 768.176V806H1544.74V738.32H1563.55L1588.61 776.624V738.32H1607.42V806ZM1650.59 806.672C1644.25 806.672 1638.43 805.2 1633.12 802.256C1627.81 799.248 1623.58 795.12 1620.45 789.872C1617.37 784.56 1615.84 778.576 1615.84 771.92C1615.84 765.264 1617.37 759.312 1620.45 754.064C1623.58 748.752 1627.81 744.624 1633.12 741.68C1638.43 738.736 1644.25 737.264 1650.59 737.264C1656.99 737.264 1662.81 738.736 1668.06 741.68C1673.37 744.624 1677.57 748.752 1680.64 754.064C1683.71 759.312 1685.25 765.264 1685.25 771.92C1685.25 778.576 1683.71 784.56 1680.64 789.872C1677.57 795.12 1673.37 799.248 1668.06 802.256C1662.75 805.2 1656.93 806.672 1650.59 806.672ZM1650.59 789.2C1655.39 789.2 1659.17 787.632 1661.92 784.496C1664.73 781.36 1666.14 777.168 1666.14 771.92C1666.14 766.544 1664.73 762.32 1661.92 759.248C1659.17 756.112 1655.39 754.544 1650.59 754.544C1645.73 754.544 1641.92 756.112 1639.17 759.248C1636.41 762.32 1635.04 766.544 1635.04 771.92C1635.04 777.232 1636.41 781.456 1639.17 784.592C1641.92 787.664 1645.73 789.2 1650.59 789.2ZM1789.03 738.32L1772.42 806H1749.29L1739.98 764.528L1730.47 806H1707.34L1690.92 738.32H1711.27L1719.14 784.592L1729.8 738.32H1750.44L1760.81 784.208L1768.68 738.32H1789.03ZM1806.14 806.768C1802.81 806.768 1800.12 805.872 1798.07 804.08C1796.09 802.224 1795.1 799.888 1795.1 797.072C1795.1 794.256 1796.09 791.92 1798.07 790.064C1800.12 788.208 1802.81 787.28 1806.14 787.28C1809.4 787.28 1812.02 788.208 1814.01 790.064C1816.06 791.92 1817.08 794.256 1817.08 797.072C1817.08 799.824 1816.06 802.128 1814.01 803.984C1812.02 805.84 1809.4 806.768 1806.14 806.768Z" fill="white" fill-opacity="0.71"/>
<defs>
<radialGradient id="paint0_radial_0_1" cx="0" cy="0" r="1" gradientUnits="userSpaceOnUse" gradientTransform="translate(960 540) rotate(90) scale(540 960)">
<stop stop-color="#9CCF97"/>
<stop offset="1" stop-color="#69B839"/>
</radialGradient>
</defs>
</svg>
