<svg width="189" height="361" viewBox="0 0 189 361" fill="none" xmlns="http://www.w3.org/2000/svg">
<path fill-rule="evenodd" clip-rule="evenodd" d="M87.8418 115.946C98.9559 115.946 108.046 124.854 108.046 135.746C108.046 170.696 117.684 193.698 117.684 220.422C117.684 246.154 108.89 268.02 96.6361 276.08V296.004L63.1441 310.347L29.9475 296.004C21.7023 258.885 0 243.839 0 184.542C0 122.559 24.7818 72.3367 55.3416 72.3367C59.5802 72.3367 63.6939 73.2875 67.6588 75.1059V135.745C67.658 124.854 76.7477 115.946 87.8418 115.946V115.946Z" fill="#FFCBBE"/>
<path fill-rule="evenodd" clip-rule="evenodd" d="M45.5979 40.2609H62.5749C64.6001 39.9094 66.2027 38.3382 66.5614 36.355V19.7167C66.5614 8.86601 75.6086 0 86.6811 0C97.7543 0 106.802 8.86674 106.802 19.7167V36.355C107.16 38.3389 108.764 39.9094 110.809 40.2609H127.766C138.838 40.2609 147.907 49.1473 147.907 59.9775V80.5422H168.871C179.944 80.5422 188.992 89.4089 188.992 100.259C188.992 111.089 179.944 119.975 168.871 119.975H147.907V140.519C147.907 151.37 138.838 160.236 127.766 160.236H45.5979C34.5247 160.236 25.4767 151.37 25.4767 140.519V59.9783C25.4767 49.148 34.5247 40.2609 45.5979 40.2609V40.2609Z" fill="#CCF49F"/>
<path fill-rule="evenodd" clip-rule="evenodd" d="M87.8417 115.946C98.9559 115.946 108.046 124.854 108.046 135.746C108.046 170.695 117.684 193.698 117.684 220.422C117.684 246.154 108.89 268.02 96.636 276.08V296.004H67.658V135.746C67.658 124.854 76.7477 115.946 87.8417 115.946V115.946Z" fill="#FFCBBE"/>
<path fill-rule="evenodd" clip-rule="evenodd" d="M116.166 354.452V315.142C116.166 304.622 107.371 296.004 96.6361 296.004H29.9482C19.2128 296.004 10.4185 304.622 10.4185 315.142V354.452C10.8403 357.491 13.2867 359.888 16.387 360.301H110.198C113.277 359.888 115.724 357.491 116.166 354.452V354.452Z" fill="#A5CDFF"/>
<path d="M67.658 195.186C67.658 198.121 65.2325 200.498 62.2379 200.498C59.2432 200.498 56.8177 198.121 56.8177 195.186V160.237H67.658V195.186Z" fill="#F0B6A6"/>
<path fill-rule="evenodd" clip-rule="evenodd" d="M100.349 209.096C100.349 231.231 93.8534 250.493 84.2147 260.579C78.6888 266.386 79.2796 274.075 79.3012 277.031V296.004H96.6375V284.905C96.6375 276.08 99.1687 276.969 106.382 265.664C113.299 254.855 117.686 238.61 117.686 220.422C117.686 193.698 108.048 170.695 108.048 135.746C108.048 125.165 99.4641 116.442 88.771 115.967C90.015 118.53 90.7114 121.402 90.7114 124.42C90.7107 159.369 100.349 182.372 100.349 209.096Z" fill="#F0B6A6"/>
<path fill-rule="evenodd" clip-rule="evenodd" d="M129.833 77.6695V140.52C129.833 151.371 120.785 160.237 109.713 160.237H127.766C138.839 160.237 147.908 151.371 147.908 140.52V119.977H168.872C179.944 119.977 188.992 111.09 188.992 100.26C188.992 89.4096 179.944 80.5436 168.872 80.5436H147.908V59.9783C147.908 49.148 138.839 40.2616 127.766 40.2616H110.81C108.764 39.9102 107.162 38.3389 106.802 36.3557V19.7167C106.802 8.86601 97.755 0 86.6818 0C76.2842 0 67.6588 7.83359 66.6677 17.7743C67.3001 17.7123 67.975 17.6919 68.629 17.6919C79.7014 17.6919 88.7494 26.5587 88.7494 37.4086V54.0462C89.1073 56.0301 90.7114 57.6006 92.7567 57.9528H109.714C120.785 57.9528 129.833 66.8392 129.833 77.6695V77.6695Z" fill="#B3E59F"/>
<path fill-rule="evenodd" clip-rule="evenodd" d="M98.0914 315.142V354.452C97.6702 357.491 95.2239 359.888 92.1444 360.301H110.198C113.277 359.888 115.724 357.491 116.166 354.452V315.142C116.166 304.622 107.371 296.004 96.636 296.004H78.5825C82.6314 296.004 86.4073 297.244 89.5285 299.331C94.6964 302.783 98.0914 308.59 98.0914 315.142V315.142Z" fill="#8ABFFF"/>
</svg>
