<svg width="155" height="360" viewBox="0 0 155 360" fill="none" xmlns="http://www.w3.org/2000/svg">
<path fill-rule="evenodd" clip-rule="evenodd" d="M66.4834 115.849C55.2865 115.849 46.1277 124.75 46.1277 135.633C46.1277 170.553 36.4179 193.536 36.4179 220.237C36.4179 245.948 45.2777 267.796 57.6439 275.849V295.756L92.7448 310.625L124.829 295.756C133.137 258.668 155 243.635 155 184.388C155 122.457 130.035 72.2762 99.2255 72.2762C94.9763 72.2762 90.8327 73.2262 86.8383 75.0431V135.631C86.8376 124.75 77.6803 115.849 66.4834 115.849V115.849Z" fill="#FFCBBE"/>
<path fill-rule="evenodd" clip-rule="evenodd" d="M103.05 40.2272H85.9456C83.9061 39.8761 82.2916 38.3061 81.9303 36.3246V19.7002C81.9303 8.8586 72.8157 0 61.6608 0C50.5059 0 41.3898 8.85932 41.3898 19.7002V36.3246C41.0292 38.3069 39.4139 39.8761 37.3526 40.2272H20.2695C9.11462 40.2272 0 49.1062 0 59.9274V76.5511C0.360537 78.5537 1.97585 80.1237 4.01539 80.4748H21.1195C32.2744 80.4748 41.389 89.3341 41.389 100.175C41.389 110.996 32.2744 119.875 21.1195 119.875H4.01539C1.9751 120.226 0.360537 121.795 0 123.778V140.401C0 151.243 9.11462 160.102 20.2695 160.102H103.05C114.205 160.102 123.32 151.243 123.32 140.401V59.9281C123.32 49.1069 114.205 40.2272 103.05 40.2272Z" fill="#E4C000"/>
<path fill-rule="evenodd" clip-rule="evenodd" d="M66.4834 115.849C55.2865 115.849 46.1277 124.75 46.1277 135.633C46.1277 170.553 36.4179 193.536 36.4179 220.237C36.4179 242.21 42.9616 261.332 52.5027 271.512C57.3043 276.613 57.7083 280.041 57.6439 284.212V295.756H86.8376V135.633C86.8376 124.75 77.6803 115.849 66.4834 115.849Z" fill="#FFCBBE"/>
<path fill-rule="evenodd" clip-rule="evenodd" d="M37.9688 354.156V314.879C37.9688 304.367 46.8286 295.756 57.6439 295.756H124.808C135.623 295.756 144.483 304.367 144.483 314.879V354.156C144.058 357.192 141.593 359.587 138.491 360H43.96C40.8576 359.587 38.3931 357.192 37.9688 354.156V354.156Z" fill="#A5CDFF"/>
<path d="M100.048 195.023C100.048 197.955 97.7022 200.33 94.8059 200.33C91.9095 200.33 89.5637 197.955 89.5637 195.023V160.103H100.048V195.023Z" fill="#F0B6A6"/>
<path fill-rule="evenodd" clip-rule="evenodd" d="M107.126 77.6045V140.403C107.126 150.584 99.3953 159.05 89.5637 160.021V160.103H100.048H105.127C115.837 160.103 124.587 151.245 124.587 140.403V115.251V83.2424V59.9281C124.587 49.1069 115.837 40.2279 105.127 40.2279H88.7074C86.7494 39.8768 85.1995 38.3069 84.8526 36.3253V19.7002C84.8526 8.8586 76.1025 0 65.3938 0C55.337 0 46.9942 7.82704 46.0148 17.7595C46.6473 17.6975 47.2799 17.6771 47.9325 17.6771C58.642 17.6771 67.3921 26.5365 67.3921 37.3773V54.001C67.7389 55.9833 69.2896 57.5525 71.2468 57.9043H87.6669C96.7235 57.9043 104.373 64.2438 106.535 72.7724C106.841 74.0319 107.044 75.333 107.106 76.6961C107.126 76.9853 107.126 77.2949 107.126 77.6045V77.6045Z" fill="#E4C000"/>
<path fill-rule="evenodd" clip-rule="evenodd" d="M137.539 184.388C137.539 243.634 116.531 258.667 108.555 295.756H126.036C134.011 258.668 155 243.635 155 184.388C155 139.825 142.578 101.332 124.587 83.2417V111.306C132.665 130.924 137.539 156.469 137.539 184.388V184.388Z" fill="#F0B6A6"/>
<path fill-rule="evenodd" clip-rule="evenodd" d="M127.443 314.879V354.156C127.036 357.192 124.669 359.587 121.691 360H139.151C142.13 359.587 144.496 357.192 144.904 354.156V314.879C144.904 304.367 136.398 295.756 126.015 295.756H108.555C112.471 295.756 116.123 296.995 119.161 299.081C124.139 302.53 127.443 308.332 127.443 314.879Z" fill="#8ABFFF"/>
</svg>
